<?xml version="1.0" standalone="no"?>
<!DOCTYPE svg PUBLIC "-//W3C//DTD SVG 20010904//EN"
 "http://www.w3.org/TR/2001/REC-SVG-20010904/DTD/svg10.dtd">
<svg version="1.0" xmlns="http://www.w3.org/2000/svg"
 width="2111.000000pt" height="418.000000pt" viewBox="0 0 2111.000000 418.000000"
 preserveAspectRatio="xMidYMid meet">
<metadata>
Created by potrace 1.15, written by Peter Selinger 2001-2017
</metadata>
<g transform="translate(0.000000,418.000000) scale(0.100000,-0.100000)"
fill="#000000" stroke="none">
<path d="M2 2088 l3 -2083 10553 -3 10552 -2 0 2085 0 2085 -10555 0 -10555 0
2 -2082z m20858 -3 l0 -1845 -10312 2 -10313 3 -3 1830 c-1 1007 0 1836 3
1843 3 9 2076 12 10315 12 l10310 0 0 -1845z"/>
<path d="M340 2090 l0 -1730 10208 0 10207 0 -2 1727 -3 1728 -10205 3 -10205
2 0 -1730z m12582 1485 c111 -16 200 -44 277 -85 l53 -29 38 30 c70 56 93 59
542 59 335 0 423 -3 486 -16 147 -30 267 -93 371 -194 34 -34 64 -60 65 -58 1
1 7 26 14 53 24 94 108 180 203 205 25 7 180 10 437 8 l397 -3 53 -30 c30 -16
64 -41 77 -56 l23 -28 28 31 c16 16 52 42 79 56 l50 27 1045 -1 c575 -1 1065
-1 1090 -1 1487 3 1635 2 1720 -16 47 -10 127 -38 179 -63 177 -83 299 -242
353 -459 18 -75 22 -119 22 -260 1 -187 -14 -284 -62 -409 l-27 -69 33 -70
c94 -196 114 -500 51 -766 -52 -222 -181 -392 -364 -482 -165 -80 -278 -92
-800 -85 -209 3 -398 4 -420 3 -137 -7 -594 -1 -621 9 -24 9 -43 9 -85 -2 -66
-17 -502 -20 -579 -3 -28 6 -72 25 -98 42 -50 34 -110 113 -119 159 -8 39 -17
35 -30 -15 -16 -59 -81 -130 -151 -164 l-57 -28 -350 0 c-266 0 -359 3 -388
13 -52 19 -128 81 -152 125 -11 20 -22 37 -25 37 -3 0 -14 -16 -25 -36 -24
-45 -77 -91 -134 -118 -45 -21 -56 -21 -721 -21 l-675 0 -58 27 c-63 29 -107
71 -140 133 -20 37 -22 58 -27 260 -4 188 -7 220 -20 218 -8 -1 -45 -10 -82
-19 l-67 -17 -3 -196 c-3 -190 -4 -197 -30 -247 -31 -59 -84 -108 -147 -138
-44 -20 -61 -21 -396 -21 -382 0 -392 1 -471 62 l-34 26 -58 -31 c-32 -17 -98
-43 -147 -58 -85 -26 -101 -28 -290 -28 -179 -1 -209 1 -285 22 -47 13 -122
43 -167 66 l-82 43 -23 -24 c-12 -13 -47 -36 -77 -51 l-56 -27 -665 0 c-366 0
-683 1 -705 2 -22 1 -283 -1 -581 -3 l-541 -5 -16 -58 c-23 -82 -69 -139 -146
-178 l-63 -33 -206 0 c-181 0 -212 3 -248 19 -89 40 -157 126 -172 214 l-8 42
-171 1 -171 1 -6 -41 c-14 -91 -97 -189 -189 -223 -20 -7 -107 -12 -238 -12
-201 -1 -206 -1 -257 25 -28 14 -69 46 -91 70 -70 79 -71 91 -70 508 0 258 4
381 12 404 16 43 72 111 119 145 l38 27 0 493 c0 408 3 510 16 588 59 342 184
534 434 665 l55 29 525 0 c478 0 528 -2 556 -17 30 -17 34 -17 65 0 32 16 125
17 1374 17 l1340 0 41 -22 c23 -12 56 -38 74 -57 l33 -35 31 24 c36 27 118 65
196 90 131 43 327 55 492 30z m-11353 -48 c33 -18 35 -18 74 0 38 16 73 18
407 18 403 0 363 5 471 -62 25 -16 27 -15 62 11 69 53 97 56 507 56 431 0 447
-2 527 -74 l48 -43 34 33 c18 18 54 44 80 56 45 23 52 23 456 26 500 4 560 -3
724 -87 l58 -29 16 22 c9 12 42 37 74 56 l57 35 691 0 690 0 47 -27 c64 -39
125 -111 143 -171 11 -39 15 -106 15 -282 0 -271 -7 -307 -73 -382 -28 -31
-57 -82 -85 -148 -22 -55 -56 -135 -75 -178 l-34 -77 94 -267 c71 -202 101
-275 125 -302 17 -19 40 -55 52 -80 20 -43 21 -63 21 -296 0 -236 -1 -253 -22
-297 -27 -58 -93 -124 -153 -152 -44 -21 -54 -21 -730 -21 -675 0 -686 0 -731
21 -68 32 -119 82 -151 149 l-28 60 0 214 c0 199 -1 213 -17 208 -10 -4 -53
-16 -95 -28 l-78 -22 0 -167 c0 -229 -26 -308 -123 -377 -89 -63 -36 -59 -842
-57 -38 1 -734 0 -1545 0 l-1475 -1 -50 23 c-65 30 -122 85 -151 147 -23 49
-24 57 -24 310 0 256 1 261 25 313 l25 54 0 501 c0 499 0 501 -22 546 -22 43
-23 60 -26 296 -2 171 0 263 8 290 17 55 64 121 110 151 80 53 87 54 485 51
338 -2 373 -4 404 -20z"/>
<path d="M12560 3284 c-196 -42 -327 -178 -377 -391 -16 -71 -18 -133 -18
-668 0 -462 3 -605 14 -660 47 -239 163 -376 362 -431 87 -24 250 -29 353 -11
169 30 278 106 340 238 64 135 67 177 64 886 -4 607 -4 631 -25 705 -28 98
-51 142 -107 204 -55 61 -143 110 -233 129 -86 18 -287 18 -373 -1z m236 -468
c18 -14 19 -33 22 -579 3 -616 1 -633 -50 -651 -39 -14 -75 6 -96 52 -15 33
-17 92 -20 540 -3 533 1 595 41 632 24 23 75 26 103 6z"/>
<path d="M8243 3248 c-110 -59 -194 -179 -234 -336 -33 -131 -39 -232 -39
-712 0 -491 -2 -517 -48 -606 -24 -48 -75 -94 -103 -94 -18 0 -19 -11 -19
-315 l0 -316 143 3 142 3 3 25 c9 91 56 171 128 219 l47 31 274 0 c255 0 276
-1 314 -20 72 -37 134 -127 145 -212 l7 -48 138 0 139 0 0 315 c0 309 0 315
-20 315 -25 0 -71 44 -94 89 -43 83 -44 101 -47 649 -2 478 -1 532 15 579 10
29 22 55 27 58 5 4 9 93 9 201 l0 194 -443 0 c-440 0 -443 0 -484 -22z m364
-390 c17 -31 18 -77 18 -643 -1 -712 2 -690 -81 -690 -43 0 -50 3 -62 27 -10
21 -13 164 -13 651 -1 716 -4 687 76 687 40 0 46 -3 62 -32z"/>
<path d="M9450 3081 c0 -158 3 -195 18 -227 16 -36 17 -90 17 -654 0 -570 -1
-617 -17 -640 -16 -21 -18 -50 -18 -217 l0 -193 565 0 565 0 0 380 0 380 -224
0 -224 0 -4 -119 c-3 -137 -16 -166 -81 -188 -67 -23 -67 -24 -67 198 l0 199
150 0 150 0 0 208 0 207 -147 0 -148 0 -3 189 -2 189 47 -6 c37 -4 54 -12 75
-36 27 -30 28 -36 28 -131 l0 -100 225 0 225 0 0 375 0 375 -565 0 -565 -1 0
-188z"/>
<path d="M10760 3076 c0 -184 1 -197 23 -233 l22 -38 3 -574 c3 -581 -1 -663
-34 -695 -11 -12 -14 -53 -14 -200 l0 -186 285 0 286 0 -4 188 c-3 139 -8 201
-20 242 -14 45 -17 89 -15 238 l3 184 62 -169 c88 -238 94 -267 100 -490 l6
-193 268 0 269 0 0 190 c0 118 -4 190 -10 190 -16 0 -57 71 -84 145 -14 39
-68 193 -121 342 l-95 273 90 212 c127 300 131 307 168 344 l32 32 -2 194 -3
193 -256 3 -257 2 -4 -227 c-6 -258 -2 -241 -105 -468 l-64 -140 4 185 c2 148
6 193 20 224 14 32 17 71 17 232 l0 194 -285 0 -285 0 0 -194z"/>
<path d="M13460 3063 c0 -201 1 -207 23 -231 l22 -24 0 -613 0 -613 -22 -24
c-22 -23 -23 -31 -23 -216 l0 -192 295 0 295 0 0 190 c0 179 -1 193 -21 220
-23 31 -36 111 -25 154 6 26 8 26 99 26 262 1 391 61 476 220 59 110 64 145
68 493 4 267 2 330 -12 399 -46 227 -199 381 -406 408 -41 5 -230 10 -421 10
l-348 0 0 -207z m639 -291 c23 -11 39 -29 47 -52 15 -43 19 -389 4 -439 -16
-55 -47 -81 -97 -81 l-43 0 0 295 0 295 28 0 c15 0 42 -8 61 -18z"/>
<path d="M15040 3261 c0 -4 -45 -363 -100 -797 -95 -749 -113 -861 -146 -908
-11 -16 -14 -63 -14 -213 l0 -193 260 0 260 0 0 185 c0 175 -1 188 -22 215
-20 28 -43 134 -32 152 3 4 54 8 115 8 l109 0 0 -32 c-1 -51 -17 -109 -39
-139 -19 -26 -21 -42 -21 -209 l0 -180 300 0 300 0 0 187 c0 153 -3 189 -15
203 -39 43 -56 142 -160 916 -58 434 -108 795 -110 802 -3 9 -81 12 -345 12
-187 0 -340 -4 -340 -9z m344 -866 c14 -137 26 -256 26 -262 0 -14 -120 -19
-120 -5 -2 31 56 530 61 524 3 -4 18 -119 33 -257z"/>
<path d="M16190 2790 l0 -480 174 0 174 0 4 223 c3 229 8 257 44 257 12 0 14
-96 14 -593 l0 -594 -25 -49 c-24 -47 -25 -57 -25 -226 l0 -178 295 0 295 0 0
195 c0 107 -4 195 -9 195 -5 0 -17 19 -27 43 -18 39 -19 82 -22 625 -2 372 1
582 7 582 5 0 19 -12 30 -26 20 -25 21 -39 21 -240 l0 -214 175 0 175 0 0 480
0 480 -650 0 -650 0 0 -480z"/>
<path d="M17650 3083 c0 -183 0 -187 28 -242 l27 -56 3 -817 3 -818 229 0 229
0 16 53 c8 28 70 234 138 457 l122 405 3 -165 c4 -217 -3 -282 -34 -319 -24
-28 -24 -32 -24 -230 l0 -201 240 0 240 0 0 190 c0 185 -1 190 -25 226 -14 20
-25 49 -26 63 -4 201 1 1176 7 1193 4 12 15 34 26 48 17 23 18 43 16 210 l-3
185 -256 3 -255 2 -124 -452 c-67 -249 -125 -455 -127 -458 -2 -2 -3 106 -1
242 3 217 5 248 21 265 15 17 17 43 17 211 l0 192 -245 0 -245 0 0 -187z"/>
<path d="M19050 3064 l0 -208 25 -21 c19 -15 28 -35 35 -80 12 -73 13 -1062 1
-1123 -5 -24 -20 -55 -35 -71 l-26 -27 0 -192 0 -192 398 0 c437 0 483 5 589
59 102 51 174 153 208 293 21 86 30 306 16 394 -26 168 -88 279 -184 330 l-59
31 32 13 c81 34 150 141 175 274 19 98 19 300 1 387 -27 126 -98 229 -189 273
-102 50 -161 57 -589 63 l-398 6 0 -209z m650 -274 c28 -15 48 -58 60 -132 9
-62 2 -151 -16 -180 -12 -18 -73 -38 -119 -38 l-45 0 0 186 0 187 50 -6 c27
-3 59 -11 70 -17z m8 -777 c39 -29 54 -83 54 -204 1 -151 -26 -193 -130 -206
l-52 -6 0 223 0 223 51 -5 c28 -3 62 -14 77 -25z"/>
<path d="M16184 1993 c3 -16 12 -81 21 -146 8 -65 18 -124 22 -130 3 -7 17
-29 31 -51 l24 -38 19 31 c17 28 19 52 19 196 l0 165 -71 0 -71 0 6 -27z"/>
<path d="M17370 1868 c0 -140 2 -158 25 -213 l25 -60 0 213 0 212 -25 0 -25 0
0 -152z"/>
<path d="M840 3083 c0 -175 1 -188 21 -209 11 -12 25 -39 30 -61 13 -55 11
-1169 -2 -1216 -5 -21 -19 -43 -30 -50 -18 -11 -19 -24 -19 -204 l0 -193 245
0 245 0 0 191 c0 182 -1 192 -22 222 -22 31 -23 39 -25 322 l-2 290 28 -140
c15 -77 59 -308 97 -512 l69 -373 72 0 72 0 10 53 c6 28 49 261 96 517 47 256
88 470 90 475 2 6 3 -131 2 -303 l-2 -314 -25 -20 c-25 -20 -25 -21 -28 -214
l-3 -194 290 0 291 0 0 192 c0 180 -1 193 -21 214 -35 38 -40 133 -37 707 l3
542 28 47 27 47 -2 183 -3 183 -292 3 c-161 1 -293 -1 -293 -5 0 -24 -145
-771 -149 -767 -3 2 -37 177 -76 387 l-71 382 -307 3 -307 2 0 -187z"/>
<path d="M2745 3258 c-2 -7 -49 -373 -104 -813 -97 -770 -102 -802 -131 -861
l-30 -61 0 -187 0 -186 260 0 260 0 0 186 c0 173 -1 188 -21 216 -14 20 -23
51 -27 94 l-5 64 113 0 113 0 -6 -66 c-3 -45 -12 -75 -26 -95 -20 -26 -21 -41
-21 -214 l0 -185 300 0 300 0 0 183 c0 177 -1 184 -24 215 -13 18 -31 58 -39
90 -9 31 -61 395 -116 807 -56 413 -103 767 -107 788 l-6 37 -339 0 c-263 0
-341 -3 -344 -12z m340 -843 c14 -132 28 -252 31 -267 l6 -28 -66 0 c-36 0
-66 2 -66 4 0 3 14 124 30 271 17 147 31 272 31 278 3 25 9 -26 34 -258z"/>
<path d="M3898 3264 c-5 -4 -8 -99 -8 -210 0 -192 1 -204 20 -214 10 -6 24
-27 30 -48 14 -51 14 -1143 0 -1194 -6 -21 -20 -42 -30 -48 -19 -10 -20 -22
-20 -205 l0 -195 295 0 295 0 0 190 c0 172 -2 193 -20 222 -15 25 -20 51 -20
106 l0 72 98 0 c208 1 313 32 401 119 83 81 121 171 141 331 13 110 13 517 -1
616 -30 216 -152 378 -327 436 -63 20 -89 22 -457 26 -214 2 -393 0 -397 -4z
m651 -502 c42 -31 52 -93 49 -292 -3 -151 -6 -180 -23 -215 -21 -43 -66 -66
-111 -57 l-24 4 0 295 0 296 42 -6 c23 -3 53 -14 67 -25z"/>
<path d="M5247 3263 c-4 -3 -7 -91 -7 -195 0 -174 2 -191 20 -216 11 -15 25
-54 30 -87 13 -80 13 -1076 0 -1146 -6 -30 -19 -66 -30 -81 -18 -25 -20 -43
-20 -208 l0 -180 290 0 291 0 -4 188 c-2 146 -7 196 -20 227 -13 33 -16 76
-16 240 l0 200 60 -160 c90 -243 99 -286 99 -507 l0 -188 275 0 275 0 0 182 0
182 -30 31 c-30 31 -60 107 -216 556 l-66 190 70 162 c38 89 87 203 107 252
21 50 54 110 74 135 l36 45 -3 193 -2 192 -258 -2 -257 -3 -6 -235 c-3 -129
-10 -249 -16 -267 -6 -17 -40 -95 -75 -173 l-63 -143 -3 166 c-2 138 0 172 15
209 14 36 17 77 18 243 l0 200 -281 3 c-154 1 -283 -1 -287 -5z"/>
</g>
</svg>
